<?xml version="1.0" encoding="UTF-8"?>
<!-- Created with Inkscape (http://www.inkscape.org/) -->
<svg width="50.005" height="42.965" version="1.1" viewBox="0 0 50.005 42.965" xmlns="http://www.w3.org/2000/svg">
 <g transform="matrix(1.3333 0 0 -1.3333 -530.11 542.86)">
  <g transform="scale(1,-1)" aria-label="e.g. 핎 )( {핆,ℂ}">
   <path d="m405.58-374.92q-2.816-0.064-4.064-0.928-1.216-0.864-1.216-3.552v-5.664q0-1.664-0.576-2.4-0.544-0.736-2.144-1.248 1.6-0.48 2.144-1.216 0.576-0.736 0.576-2.4v-5.696q0-1.408 0.32-2.272 0.32-0.896 1.056-1.344 0.736-0.48 1.6-0.64 0.896-0.16 2.304-0.192v0.352q-1.664 0.416-2.304 1.28-0.608 0.864-0.608 2.656v5.376q0 1.984-0.608 2.816t-2.4 1.312q1.792 0.448 2.4 1.28t0.608 2.816v5.376q0 1.792 0.608 2.656 0.64 0.864 2.304 1.28z"/>
   <path d="m427.24-407.15v14.848h2.688v-14.848zm-6.656 16.576v12.384h9.344v-12.384zm7.008 2.048v8.256h-4.736v-8.256zm-20.64-4.64c5.024 0 11.68-0.16 17.408-0.992l-0.16-1.952c-1.312 0.16-2.688 0.256-4.096 0.352v-7.584h2.592v-2.112h-15.296v2.112h2.912v7.968l-3.68 0.032zm5.92-10.176h4.672v7.744l-4.672 0.16zm-3.36 22.944v2.016h1.504c3.744 0 5.856-0.032 8.608-0.512l-0.224-2.016c-2.4 0.448-4.288 0.512-7.36 0.512v-3.264h6.752v-6.912h-9.344v2.112h6.784v2.944h-6.72z"/>
   <path d="m433.39-380.65t-0.256 0.064q-0.288 0.064-0.608 0.064-0.864 0-1.376-0.416-0.512-0.448-0.512-1.216 0-0.8 0.512-1.312 0.544-0.512 1.376-0.512 1.088 0 1.824 0.832 0.736 0.8 0.736 2.016 0 1.44-0.992 2.784t-2.592 2.144l-0.288-0.608q2.624-1.792 2.624-3.392 0-0.448-0.448-0.448z"/>
  </g>
 </g>
</svg>
