<?xml version="1.0" encoding="UTF-8"?>
<!-- Created with Inkscape (http://www.inkscape.org/) -->
<svg width="34.347" height="38.613" version="1.1" viewBox="0 0 34.347 38.613" xmlns="http://www.w3.org/2000/svg">
 <g transform="matrix(1.3333 0 0 -1.3333 -436.15 542.86)">
  <g transform="scale(1,-1)" aria-label="e.g. 핎 )( {핆,ℂ}">
   <path d="m347.76-407.15v15.616h2.688v-15.616zm-15.2 22.752h5.088v3.776h-5.088zm-5.12-8.288c5.024 0 11.68-0.16 17.44-0.992l-0.16-1.952c-1.312 0.16-2.72 0.288-4.128 0.384v-8.096h2.624v-2.112h-15.296v2.112h2.88v8.448l-3.68 0.032zm5.92-10.656h4.672v8.256l-4.672 0.16zm-3.296 13.44v11.392h10.08v-1.696l1.408 2.016c2.464-1.024 4.16-2.88 5.088-5.12 0.896 2.144 2.496 4.032 4.832 5.088l1.408-2.112c-3.2-1.44-4.992-4.512-4.992-7.264v-2.432h-2.624v2.528c0 2.816-1.824 5.76-5.12 7.136v-9.536h-2.496v3.456h-5.088v-3.456z"/>
  </g>
 </g>
</svg>
